<svg width="32" height="32" viewBox="0 0 32 32" fill="none" xmlns="http://www.w3.org/2000/svg">
  <path d="M16.0626 31.8411C24.7542 31.8411 31.8001 24.7919 31.8001 16.0963C31.8001 7.40068 24.7542 0.351501 16.0626 0.351501C7.37108 0.351501 0.325195 7.40068 0.325195 16.0963C0.325195 24.7919 7.37108 31.8411 16.0626 31.8411Z" fill="white"/>
  <path d="M17.0475 18.9438C17.0475 20.2377 17.0737 21.3745 17.1503 22.3617H15.1376L15.0086 20.3162H14.9507C14.5283 21.0365 13.9223 21.6317 13.1947 22.041C12.4671 22.4503 11.644 22.659 10.8093 22.6459C8.84334 22.6459 6.49048 21.5596 6.49048 17.1583V9.83276H8.76858V16.7694C8.76858 19.1514 9.49182 20.7556 11.5625 20.7556C13.0893 20.7556 14.1489 19.6955 14.5638 18.6858C14.6991 18.3125 14.7668 17.9181 14.7638 17.521V9.83276H17.0475V18.9438Z" fill="#3C3C3B"/>
  <path d="M14.9731 13.2244C14.9731 11.9306 14.9469 10.8686 14.8684 9.83278H16.8867L17.0176 11.9044H17.068C17.6885 10.7134 19.1387 9.54858 21.2075 9.54858C22.9418 9.54858 25.6329 10.5844 25.6329 14.881V22.3598H23.3604V15.1446C23.3604 13.1253 22.6128 11.4426 20.4637 11.4426C19.7726 11.4524 19.1027 11.6833 18.5522 12.1015C18.0017 12.5197 17.5995 13.1032 17.4044 13.7666C17.2952 14.1098 17.2428 14.4685 17.2493 14.8286V22.3617H14.9731V13.2244Z" fill="#3C3C3B"/>
  <path d="M22.7062 13.7573H9.29736V17.8201H22.7062V13.7573Z" fill="white"/>
  <path d="M11.7418 14.3388V16.5824C11.7418 16.747 11.7418 16.934 11.7567 17.0611H11.454L11.439 16.7395C11.3784 16.8532 11.287 16.9475 11.1753 17.0117C11.0636 17.0758 10.9361 17.1072 10.8074 17.1022C10.3607 17.1022 10.0168 16.7283 10.0168 16.1674C10.0168 15.5504 10.3906 15.1727 10.8466 15.1727C10.9568 15.1652 11.0669 15.1875 11.1655 15.2372C11.2641 15.2868 11.3476 15.3621 11.4073 15.455V14.3388H11.7418ZM11.3998 15.9561C11.4004 15.9089 11.3953 15.8619 11.3848 15.8159C11.3612 15.7047 11.2999 15.6052 11.2114 15.534C11.1229 15.4628 11.0125 15.4243 10.8989 15.4251C10.5513 15.4251 10.3383 15.7317 10.3383 16.1412C10.3383 16.5151 10.5252 16.8255 10.884 16.8255C10.9999 16.8254 11.1121 16.7853 11.202 16.7121C11.2918 16.6389 11.3538 16.537 11.3774 16.4235C11.3884 16.3757 11.3934 16.3267 11.3923 16.2777L11.3998 15.9561Z" fill="#3C3C3B"/>
  <path d="M12.4875 16.1898C12.4809 16.2749 12.4926 16.3604 12.5221 16.4405C12.5515 16.5207 12.5979 16.5935 12.658 16.6541C12.7182 16.7146 12.7907 16.7614 12.8706 16.7913C12.9505 16.8212 13.036 16.8335 13.1211 16.8273C13.2994 16.836 13.4774 16.8054 13.6425 16.7376L13.6986 16.9788C13.5037 17.059 13.2943 17.0979 13.0837 17.0928C12.5231 17.0928 12.1736 16.7189 12.1736 16.158C12.1736 15.5971 12.5025 15.1595 13.0407 15.1595C13.6462 15.1595 13.8051 15.6905 13.8051 16.0308C13.8046 16.0834 13.8008 16.1358 13.7939 16.1879L12.4875 16.1898ZM13.4743 15.9486C13.4743 15.7354 13.3865 15.4026 13.0071 15.4026C12.667 15.4026 12.5174 15.7167 12.4913 15.9486H13.4743Z" fill="#3C3C3B"/>
  <path d="M14.2498 17.0554V15.4587H13.99V15.2026H14.2498V15.1035C14.2407 14.9951 14.2553 14.8861 14.2927 14.784C14.3301 14.6818 14.3892 14.5891 14.4661 14.5122C14.543 14.4353 14.6356 14.3761 14.7377 14.3387C14.8398 14.3013 14.9488 14.2867 15.0571 14.2958C15.2222 14.2945 15.3847 14.3371 15.528 14.4192L15.4309 14.6753C15.3146 14.6024 15.1794 14.5653 15.0421 14.5687C14.6852 14.5687 14.5824 14.8174 14.5824 15.111V15.2026H15.657V17.0554H15.3243V15.4587H14.5768V17.0554H14.2498Z" fill="#3C3C3B"/>
  <path d="M16.2159 15.7055C16.2159 15.5186 16.2159 15.3578 16.2009 15.2044H16.4981L16.5186 15.5186C16.579 15.4103 16.6679 15.3206 16.7756 15.2593C16.8834 15.198 17.0058 15.1674 17.1297 15.1708C17.3858 15.1708 17.7838 15.3241 17.7838 15.9579V17.0648H17.4549V15.9879C17.4549 15.6887 17.3447 15.44 17.027 15.44C16.9248 15.4418 16.8259 15.4761 16.7445 15.538C16.6632 15.5998 16.6037 15.686 16.5747 15.7841C16.559 15.8349 16.5514 15.8879 16.5523 15.9411V17.0629H16.2159V15.7055Z" fill="#3C3C3B"/>
  <path d="M18.5258 16.1898C18.5182 16.2755 18.5294 16.3618 18.5585 16.4428C18.5877 16.5238 18.6341 16.5974 18.6946 16.6586C18.755 16.7198 18.8281 16.7671 18.9087 16.7972C18.9893 16.8273 19.0754 16.8395 19.1612 16.8329C19.3368 16.8388 19.5115 16.8063 19.6733 16.7376L19.7312 16.9788C19.5357 17.059 19.3257 17.0978 19.1145 17.0928C18.5538 17.0928 18.2043 16.7189 18.2043 16.158C18.2043 15.5971 18.5333 15.1595 19.0734 15.1595C19.677 15.1595 19.8377 15.6905 19.8377 16.0308C19.8372 16.0834 19.8334 16.1358 19.8265 16.1879L18.5258 16.1898ZM19.5125 15.9486C19.5125 15.7354 19.4247 15.4026 19.0453 15.4026C18.7052 15.4026 18.5557 15.7167 18.5295 15.9486H19.5125Z" fill="#3C3C3B"/>
  <path d="M21.8524 14.3388V16.5825C21.8524 16.747 21.8524 16.934 21.8692 17.0611H21.5664L21.5515 16.7395C21.4907 16.8531 21.3993 16.9473 21.2876 17.0114C21.1759 17.0755 21.0485 17.107 20.9198 17.1022C20.4732 17.1022 20.1274 16.7283 20.1274 16.1674C20.1274 15.5504 20.5012 15.1727 20.9591 15.1727C21.0692 15.1652 21.1794 15.1875 21.278 15.2372C21.3766 15.2868 21.4601 15.3621 21.5197 15.455V14.3388H21.8524ZM21.516 15.9561C21.5166 15.9089 21.5115 15.8619 21.501 15.8159C21.4774 15.7047 21.4161 15.6052 21.3276 15.534C21.2391 15.4628 21.1287 15.4243 21.0151 15.4251C20.6675 15.4251 20.4545 15.7317 20.4545 16.1412C20.4545 16.5151 20.6414 16.8255 21.0002 16.8255C21.116 16.825 21.2281 16.7849 21.3178 16.7117C21.4076 16.6386 21.4696 16.5369 21.4936 16.4235C21.5046 16.3757 21.5096 16.3267 21.5085 16.2777L21.516 15.9561Z" fill="#3C3C3B"/>
</svg>
